<?xml version="1.0" encoding="utf-8"?>
<!-- Generator: Adobe Illustrator 19.1.0, SVG Export Plug-In . SVG Version: 6.00 Build 0)  -->
<svg version="1.1" id="Layer_1" xmlns="http://www.w3.org/2000/svg" xmlns:xlink="http://www.w3.org/1999/xlink" x="0px" y="0px"
	 viewBox="0 0 1024 1024" style="enable-background:new 0 0 1024 1024;" xml:space="preserve">
<style type="text/css">
	.st0{fill:#BEC6C6;}
	.st1{opacity:0.3;fill:#B5E3E5;enable-background:new    ;}
	.st2{opacity:0.15;fill:#F7F7F7;enable-background:new    ;}
	.st3{fill:#666666;stroke:#666666;stroke-width:5;stroke-miterlimit:10;}
	.st4{fill:none;stroke:#666666;stroke-width:42;stroke-miterlimit:10;}
	.st5{opacity:0.61;fill:none;stroke:#000000;stroke-width:42;stroke-miterlimit:10;enable-background:new    ;}
</style>
<g>
	<ellipse class="st0" cx="511.1" cy="512" rx="422.6" ry="459.7"/>
	<ellipse class="st1" cx="511.1" cy="512" rx="380.7" ry="414.1"/>
	<path class="st2" d="M361.9,883.5c228.9,48,442.5-48.6,477.7-216.1"/>
</g>
<path class="st3" d="M513,686.3L513,686.3c-62.4,0-113.4-51-113.4-113.4V257.5c0-62.4,51-113.4,113.4-113.4l0,0
	c62.4,0,113.4,51,113.4,113.4V573C626.4,635.3,575.4,686.3,513,686.3z"/>
<path class="st4" d="M718.1,505.7c12.3,126.8-89.6,234.5-207.7,233c-116.9-1.5-215.5-109.6-202.2-234.9"/>
<path class="st4" d="M520.5,757.9"/>
<line class="st4" x1="511.1" y1="719" x2="512.7" y2="877.7"/>
<line class="st4" x1="463" y1="879.9" x2="563" y2="878.3"/>
<line class="st5" x1="232.3" y1="166.6" x2="792.1" y2="855.4"/>
</svg>
