<?xml version="1.0" encoding="utf-8"?>
<!-- Generator: Adobe Illustrator 19.1.0, SVG Export Plug-In . SVG Version: 6.00 Build 0)  -->
<svg version="1.1" id="Layer_1" xmlns="http://www.w3.org/2000/svg" xmlns:xlink="http://www.w3.org/1999/xlink" x="0px" y="0px"
	 viewBox="0 0 1024 1024" style="enable-background:new 0 0 1024 1024;" xml:space="preserve">
<style type="text/css">
	.st0{fill:#BEC6C6;}
	.st1{opacity:0.3;fill:#B5E3E5;}
	.st2{opacity:0.15;fill:#F7F7F7;}
	.st3{fill:#666666;stroke:#666666;stroke-width:40;stroke-miterlimit:10;}
	.st4{fill:none;stroke:#666666;stroke-width:42;stroke-miterlimit:10;}
	.st5{opacity:0.6;fill:none;stroke:#000000;stroke-width:42;stroke-miterlimit:10;}
</style>
<g>
	<ellipse class="st0" cx="512" cy="511.8" rx="422.6" ry="459.7"/>
	<ellipse class="st1" cx="512" cy="511.8" rx="380.7" ry="414.1"/>
	<path class="st2" d="M362.8,883.4c228.9,48,442.5-48.6,477.7-216.1"/>
</g>
<g>
	<path class="st3" d="M795.5,702.1L795.5,702.1c-30.1,2.7-57-19.7-59.7-49.8L725,534.7c-2.7-30.1,19.7-57,49.8-59.7l0,0
		c30.1-2.7,57,19.7,59.7,49.8l10.7,117.6C848,672.4,825.6,699.3,795.5,702.1z"/>
	<path class="st4" d="M841.3,630.1c0-258.3-147.3-467.4-329.3-467.4"/>
	<path class="st3" d="M228.5,702.1L228.5,702.1c30.1,2.7,57-19.7,59.7-49.8L299,534.7c2.7-30.1-19.7-57-49.8-59.7h0
		c-30.1-2.7-57,19.7-59.7,49.8l-10.7,117.6C176,672.4,198.4,699.3,228.5,702.1z"/>
	<path class="st4" d="M182.7,630.1c0-258.3,147.3-467.4,329.3-467.4"/>
</g>
<line class="st5" x1="237.1" y1="162.7" x2="785.1" y2="856.1"/>
</svg>
