<?xml version="1.0" encoding="utf-8"?>
<!-- Generator: Adobe Illustrator 19.1.0, SVG Export Plug-In . SVG Version: 6.00 Build 0)  -->
<svg version="1.1" id="Layer_1" xmlns="http://www.w3.org/2000/svg" xmlns:xlink="http://www.w3.org/1999/xlink" x="0px" y="0px"
	 viewBox="0 0 1024 1024" style="enable-background:new 0 0 1024 1024;" xml:space="preserve">
<style type="text/css">
	.st0{fill:#BEC6C6;}
	.st1{fill:#B5E3E5;}
	.st2{opacity:0.15;fill:#F7F7F7;}
	.st3{opacity:0.25;fill:url(#SVGID_1_);stroke:#6E14AF;stroke-width:40;stroke-miterlimit:10;}
	.st4{opacity:0.25;fill:url(#SVGID_2_);stroke:#6E14AF;stroke-width:40;stroke-miterlimit:10;}
	.st5{fill:url(#SVGID_3_);stroke:url(#SVGID_4_);stroke-width:40;stroke-miterlimit:10;}
	.st6{fill:none;stroke:url(#SVGID_5_);stroke-width:42;stroke-miterlimit:10;}
	.st7{fill:url(#SVGID_6_);stroke:url(#SVGID_7_);stroke-width:40;stroke-miterlimit:10;}
	.st8{fill:none;stroke:url(#SVGID_8_);stroke-width:42;stroke-miterlimit:10;}
</style>
<g>
	<ellipse class="st0" cx="512" cy="512" rx="422.6" ry="459.7"/>
	<ellipse class="st1" cx="512" cy="512" rx="380.7" ry="414.1"/>
	<path class="st2" d="M362.8,883.5c228.9,48,442.5-48.6,477.7-216.1"/>
</g>
<linearGradient id="SVGID_1_" gradientUnits="userSpaceOnUse" x1="687.8218" y1="582.0354" x2="819.0745" y2="582.0354">
	<stop  offset="0" style="stop-color:#FFFFFF"/>
	<stop  offset="0.2475" style="stop-color:#ACAAAB"/>
	<stop  offset="0.7949" style="stop-color:#2C2829"/>
	<stop  offset="0.9818" style="stop-color:#000000"/>
</linearGradient>
<path class="st3" d="M771.3,705.5l-13.5,1.2c-28.8,2.6-54.4-19-57-48.2L688,516.4c-2.6-29.1,18.8-55.1,47.5-57.8l13.5-1.2
	c28.8-2.6,54.4,19,57,48.2l12.7,142.2C821.5,676.8,800.1,702.8,771.3,705.5z"/>
<linearGradient id="SVGID_2_" gradientUnits="userSpaceOnUse" x1="339.0417" y1="844.4382" x2="208.2199" y2="844.4382" gradientTransform="matrix(0.9991 4.303453e-02 -4.303453e-02 0.9991 30.5219 -273.3961)">
	<stop  offset="0" style="stop-color:#FFFFFF"/>
	<stop  offset="0.2475" style="stop-color:#ACAAAB"/>
	<stop  offset="0.7949" style="stop-color:#2C2829"/>
	<stop  offset="0.9818" style="stop-color:#000000"/>
</linearGradient>
<path class="st4" d="M246.9,704.9l8.5,1.2c30,4.1,57.8-17.5,61.8-47.8l18.2-136.5c4-30.4-17.2-58.6-47.1-62.6l-8.5-1.2
	c-30-4.1-57.8,17.5-61.8,47.8l-18.2,136.5C195.7,672.7,216.9,700.9,246.9,704.9z"/>
<g>
	<linearGradient id="SVGID_3_" gradientUnits="userSpaceOnUse" x1="725.2095" y1="571.1118" x2="846.2849" y2="571.1118">
		<stop  offset="0" style="stop-color:#FFFFFF"/>
		<stop  offset="0.2475" style="stop-color:#ACAAAB"/>
		<stop  offset="0.7949" style="stop-color:#2C2829"/>
		<stop  offset="0.9818" style="stop-color:#000000"/>
	</linearGradient>
	<linearGradient id="SVGID_4_" gradientUnits="userSpaceOnUse" x1="705.2095" y1="571.1118" x2="866.2849" y2="571.1118">
		<stop  offset="0" style="stop-color:#FFFFFF"/>
		<stop  offset="0.2475" style="stop-color:#ACAAAB"/>
		<stop  offset="0.7949" style="stop-color:#2C2829"/>
		<stop  offset="0.9818" style="stop-color:#000000"/>
	</linearGradient>
	<path class="st5" d="M798.5,684.4l-5,0.5c-28.8,2.6-54.4-18.8-57-47.5l-11.1-122.5c-2.6-28.8,18.8-54.4,47.5-57l5-0.5
		c28.8-2.6,54.4,18.8,57,47.5l11.1,122.5C848.7,656.2,827.3,681.8,798.5,684.4z"/>
	<linearGradient id="SVGID_5_" gradientUnits="userSpaceOnUse" x1="511.1837" y1="368.525" x2="861.4863" y2="368.525">
		<stop  offset="0" style="stop-color:#FFFFFF"/>
		<stop  offset="0.2475" style="stop-color:#ACAAAB"/>
		<stop  offset="0.7949" style="stop-color:#2C2829"/>
		<stop  offset="0.9818" style="stop-color:#000000"/>
	</linearGradient>
	<path class="st6" d="M840.5,612.7c0-258.3-147.3-467.4-329.3-467.4"/>
	<linearGradient id="SVGID_6_" gradientUnits="userSpaceOnUse" x1="298.3597" y1="571.1118" x2="177.7152" y2="571.1118">
		<stop  offset="0" style="stop-color:#FFFFFF"/>
		<stop  offset="0.2475" style="stop-color:#ACAAAB"/>
		<stop  offset="0.7949" style="stop-color:#2C2829"/>
		<stop  offset="0.9818" style="stop-color:#000000"/>
	</linearGradient>
	<linearGradient id="SVGID_7_" gradientUnits="userSpaceOnUse" x1="318.3597" y1="571.1118" x2="157.7152" y2="571.1118">
		<stop  offset="0" style="stop-color:#FFFFFF"/>
		<stop  offset="0.2475" style="stop-color:#ACAAAB"/>
		<stop  offset="0.7949" style="stop-color:#2C2829"/>
		<stop  offset="0.9818" style="stop-color:#000000"/>
	</linearGradient>
	<path class="st7" d="M227.7,684.7L227.7,684.7c30.1,2.7,57-19.7,59.7-49.8l10.7-117.6c2.7-30.1-19.7-57-49.8-59.7l0,0
		c-30.1-2.7-57,19.7-59.7,49.8l-10.7,117.6C175.2,655,197.6,681.9,227.7,684.7z"/>
	<linearGradient id="SVGID_8_" gradientUnits="userSpaceOnUse" x1="511.1837" y1="368.525" x2="160.8812" y2="368.525">
		<stop  offset="0" style="stop-color:#FFFFFF"/>
		<stop  offset="0.2475" style="stop-color:#ACAAAB"/>
		<stop  offset="0.7949" style="stop-color:#2C2829"/>
		<stop  offset="0.9818" style="stop-color:#000000"/>
	</linearGradient>
	<path class="st8" d="M181.9,612.7c0-258.3,147.3-467.4,329.3-467.4"/>
</g>
</svg>
