<?xml version="1.0" encoding="utf-8"?>
<!-- Generator: Adobe Illustrator 19.1.0, SVG Export Plug-In . SVG Version: 6.00 Build 0)  -->
<svg version="1.1" id="Layer_1" xmlns="http://www.w3.org/2000/svg" xmlns:xlink="http://www.w3.org/1999/xlink" x="0px" y="0px"
	 viewBox="0 0 1024 1024" style="enable-background:new 0 0 1024 1024;" xml:space="preserve">
<style type="text/css">
	.st0{fill:#BEC6C6;}
	.st1{opacity:0.65;fill:#B5E3E5;}
	.st2{opacity:0.15;fill:#F7F7F7;}
	.st3{fill:url(#SVGID_1_);stroke:#666666;stroke-width:3;stroke-miterlimit:10;}
	.st4{fill:none;stroke:#666666;stroke-width:42;stroke-miterlimit:10;}
</style>
<g>
	<ellipse class="st0" cx="511.5" cy="512" rx="422.6" ry="459.7"/>
	<ellipse class="st1" cx="511.5" cy="512" rx="380.7" ry="414.1"/>
	<path class="st2" d="M362.3,883.5c228.9,48,442.5-48.6,477.7-216.1"/>
</g>
<linearGradient id="SVGID_1_" gradientUnits="userSpaceOnUse" x1="337.5793" y1="319.1282" x2="670.4207" y2="511.2943">
	<stop  offset="0" style="stop-color:#FFFFFF"/>
	<stop  offset="0.2475" style="stop-color:#ACAAAB"/>
	<stop  offset="0.7949" style="stop-color:#2C2829"/>
	<stop  offset="0.9818" style="stop-color:#000000"/>
</linearGradient>
<path class="st3" d="M504,686.3L504,686.3c-62.4,0-113.4-51-113.4-113.4c0,0,0-130.4,0-223.5c0-10.3,0-20.2,0-7.1
	c0-31.5,0-40,0-90.2c0,35,0,28.3,0-3.6c0,20.9,0,16.6,0-0.4c0,11,0,9.4,0-0.2c0,1.8,0.8-5.8,2.3-13.2
	c10.6-51.5,56.5-90.6,111.1-90.6h0c31.2,0,59.5,12.8,80.1,33.3c5.1,5.1,9.8,10.8,13.9,16.8c4.1,6,16.9,43,10.5,19.3
	c7.2,25.6,7.9,28.5,6.6,21.2c1.2,7.3,1.3,7.4,2.3,22.8c-1.1-15.3-1-15.1,0,4.6c-1-19.6-0.8-13.6,0,12.9c-0.8-23.9,0,12.2,0,19.8
	c0,7.6,0,16.1,0,25.3c0,92,0,252.9,0,252.9C617.4,635.3,566.4,686.3,504,686.3z"/>
<path class="st4" d="M709.1,505.7c12.3,126.8-89.6,234.5-207.7,233c-116.9-1.5-215.5-109.6-202.2-234.9"/>
<path class="st4" d="M511.5,757.9"/>
<line class="st4" x1="502.1" y1="719" x2="503.7" y2="877.7"/>
<line class="st4" x1="454" y1="879.9" x2="554" y2="878.3"/>
</svg>
