<?xml version="1.0" encoding="utf-8"?>
<!-- Generator: Adobe Illustrator 19.1.0, SVG Export Plug-In . SVG Version: 6.00 Build 0)  -->
<svg version="1.1" id="Layer_1" xmlns="http://www.w3.org/2000/svg" xmlns:xlink="http://www.w3.org/1999/xlink" x="0px" y="0px"
	 viewBox="0 0 1024 1024" style="enable-background:new 0 0 1024 1024;" xml:space="preserve">
<style type="text/css">
	.st0{fill:#BEC6C6;}
	.st1{fill:#B5E3E5;}
	.st2{opacity:0.15;fill:#F7F7F7;}
	.st3{opacity:0.25;fill:#6E14AF;}
	.st4{fill:none;stroke:#666666;stroke-width:42;stroke-miterlimit:10;}
	.st5{fill:url(#SVGID_1_);stroke:#808080;stroke-miterlimit:10;}
</style>
<g>
	<ellipse class="st0" cx="512" cy="512" rx="422.6" ry="459.7"/>
	<ellipse class="st1" cx="512" cy="512" rx="380.7" ry="414.1"/>
	<path class="st2" d="M362.8,883.5c228.9,48,442.5-48.6,477.7-216.1"/>
</g>
<path class="st3" d="M531.8,698.3h-39.7c-62.4,0-113.4-51-113.4-113.4v-349c0-62.4,51-113.4,113.4-113.4h39.7
	c62.4,0,113.4,51,113.4,113.4v349C645.2,647.2,594.2,698.3,531.8,698.3z"/>
<path class="st4" d="M519.5,757.9"/>
<g>
	<linearGradient id="SVGID_1_" gradientUnits="userSpaceOnUse" x1="345.5793" y1="319.1282" x2="678.4207" y2="511.2943">
		<stop  offset="0" style="stop-color:#FFFFFF"/>
		<stop  offset="0.2475" style="stop-color:#ACAAAB"/>
		<stop  offset="0.7949" style="stop-color:#2C2829"/>
		<stop  offset="0.9818" style="stop-color:#000000"/>
	</linearGradient>
	<path class="st5" d="M512,686.3L512,686.3c-62.4,0-113.4-51-113.4-113.4V257.5c0-62.4,51-113.4,113.4-113.4h0
		c62.4,0,113.4,51,113.4,113.4V573C625.4,635.3,574.4,686.3,512,686.3z"/>
	<path class="st4" d="M717.1,505.7c12.3,126.8-89.6,234.5-207.7,233c-116.9-1.5-215.5-109.6-202.2-234.9"/>
	<line class="st4" x1="510.1" y1="719" x2="511.7" y2="877.7"/>
	<line class="st4" x1="462" y1="879.9" x2="562" y2="878.3"/>
</g>
</svg>
